<svg id="visual" viewBox="0 0 1440 900" width="1440" height="900" xmlns="http://www.w3.org/2000/svg" xmlns:xlink="http://www.w3.org/1999/xlink" version="1.1"><rect x="0" y="0" width="1440" height="900" fill="#6b5d8a"></rect><path d="M0 413L34.3 418C68.7 423 137.3 433 205.8 432.5C274.3 432 342.7 421 411.2 425.7C479.7 430.3 548.3 450.7 617 458C685.7 465.3 754.3 459.7 823 447.5C891.7 435.3 960.3 416.7 1028.8 395.7C1097.3 374.7 1165.7 351.3 1234.2 359.2C1302.7 367 1371.3 406 1405.7 425.5L1440 445L1440 0L1405.7 0C1371.3 0 1302.7 0 1234.2 0C1165.7 0 1097.3 0 1028.8 0C960.3 0 891.7 0 823 0C754.3 0 685.7 0 617 0C548.3 0 479.7 0 411.2 0C342.7 0 274.3 0 205.8 0C137.3 0 68.7 0 34.3 0L0 0Z" fill="#d385ff"></path><path d="M0 384L34.3 387.5C68.7 391 137.3 398 205.8 395.3C274.3 392.7 342.7 380.3 411.2 365.2C479.7 350 548.3 332 617 320C685.7 308 754.3 302 823 290.3C891.7 278.7 960.3 261.3 1028.8 269C1097.3 276.7 1165.7 309.3 1234.2 308.3C1302.7 307.3 1371.3 272.7 1405.7 255.3L1440 238L1440 0L1405.7 0C1371.3 0 1302.7 0 1234.2 0C1165.7 0 1097.3 0 1028.8 0C960.3 0 891.7 0 823 0C754.3 0 685.7 0 617 0C548.3 0 479.7 0 411.2 0C342.7 0 274.3 0 205.8 0C137.3 0 68.7 0 34.3 0L0 0Z" fill="#ff86b6"></path><path d="M0 153L34.3 156.8C68.7 160.7 137.3 168.3 205.8 169C274.3 169.7 342.7 163.3 411.2 166.5C479.7 169.7 548.3 182.3 617 192.2C685.7 202 754.3 209 823 202.3C891.7 195.7 960.3 175.3 1028.8 184.5C1097.3 193.7 1165.7 232.3 1234.2 246.3C1302.7 260.3 1371.3 249.7 1405.7 244.3L1440 239L1440 0L1405.7 0C1371.3 0 1302.7 0 1234.2 0C1165.7 0 1097.3 0 1028.8 0C960.3 0 891.7 0 823 0C754.3 0 685.7 0 617 0C548.3 0 479.7 0 411.2 0C342.7 0 274.3 0 205.8 0C137.3 0 68.7 0 34.3 0L0 0Z" fill="#ffa78f"></path><path d="M0 146L34.3 144.5C68.7 143 137.3 140 205.8 136.8C274.3 133.7 342.7 130.3 411.2 127.7C479.7 125 548.3 123 617 122.8C685.7 122.7 754.3 124.3 823 122.8C891.7 121.3 960.3 116.7 1028.8 109.3C1097.3 102 1165.7 92 1234.2 102.3C1302.7 112.7 1371.3 143.3 1405.7 158.7L1440 174L1440 0L1405.7 0C1371.3 0 1302.7 0 1234.2 0C1165.7 0 1097.3 0 1028.8 0C960.3 0 891.7 0 823 0C754.3 0 685.7 0 617 0C548.3 0 479.7 0 411.2 0C342.7 0 274.3 0 205.8 0C137.3 0 68.7 0 34.3 0L0 0Z" fill="#ffd786"></path></svg>