<svg id="visual" viewBox="0 0 900 600" width="900" height="600" xmlns="http://www.w3.org/2000/svg" xmlns:xlink="http://www.w3.org/1999/xlink" version="1.1"><rect x="0" y="0" width="900" height="600" fill="#fdd497"></rect><path d="M0 301L30 281.5C60 262 120 223 180 200.8C240 178.7 300 173.3 360 180.8C420 188.3 480 208.7 540 225C600 241.3 660 253.7 720 247.5C780 241.3 840 216.7 870 204.3L900 192L900 0L870 0C840 0 780 0 720 0C660 0 600 0 540 0C480 0 420 0 360 0C300 0 240 0 180 0C120 0 60 0 30 0L0 0Z" fill="#FFFFFF" stroke-linecap="round" stroke-linejoin="miter"></path></svg>