<svg id="visual" viewBox="0 0 960 540" width="960" height="540" xmlns="http://www.w3.org/2000/svg" xmlns:xlink="http://www.w3.org/1999/xlink" version="1.1"><rect x="0" y="0" width="960" height="540" fill="#F7CACA"></rect><path d="M299 0L296 18C293 36 287 72 281.8 108C276.7 144 272.3 180 268.5 216C264.7 252 261.3 288 284 324C306.7 360 355.3 396 375.7 432C396 468 388 504 384 522L380 540L0 540L0 522C0 504 0 468 0 432C0 396 0 360 0 324C0 288 0 252 0 216C0 180 0 144 0 108C0 72 0 36 0 18L0 0Z" fill="#f8c374" stroke-linecap="round" stroke-linejoin="miter"></path></svg>